# xmcd CD database file
#
# Track frame offsets:
#	150
#	18247
#	32040
#	49037
#	62042
#	75657
#	93427
#
# Disc length: 1413 seconds
#
# Revision: 0
# Processed by: cddbd v1.5.1PL0 Copyright (c) Steve Scherf et al.
# Submitted via: CDex 1.51
#
DISCID=4c058307
DTITLE=Hindu Cowboys - Hindu Cowboys
DYEAR=1999
DGENRE=Country
TTITLE0=Southbound Train
TTITLE1=Better Than Me
TTITLE2=She'll Get Hers
TTITLE3=Love Shaped Hole
TTITLE4=Boy George
TTITLE5=An Eye For An Eye
TTITLE6=Alabami Bound
EXTD=YEAR: 1999
EXTT0=
EXTT1=
EXTT2=
EXTT3=
EXTT4=
EXTT5=
EXTT6=
PLAYORDER=
